<svg width="800" height="800" viewBox="0 0 800 800" xmlns="http://www.w3.org/2000/svg">
  <!-- Gradients for 3D effects -->
  <defs>
    <radialGradient id="bgGradient" cx="0.3" cy="0.3">
      <stop offset="0%" stop-color="#00a693"/>
      <stop offset="100%" stop-color="#005953"/>
    </radialGradient>
  </defs>
  
  <!-- Main teal background circle with black border -->
  <circle cx="400" cy="400" r="384" fill="url(#bgGradient)" stroke="black" stroke-width="8"/>
  
  <!-- Search circle (magnifying glass lens) - increased by 4% -->
  <circle cx="400" cy="400" r="311" fill="none" stroke="black" stroke-width="11"/>
  
  <!-- Search handle (touching border at 3:07PM) -->
  <line x1="690" y1="512" x2="759" y2="538" stroke="black" stroke-width="48" stroke-linecap="butt"/>
  
  <!-- Four academic lines creating mortarboard cap (proportionally increased) -->
  <rect x="181" y="315" width="438" height="33" rx="14" fill="white"/>
  <rect x="181" y="361" width="438" height="33" rx="14" fill="white"/>
  <rect x="235" y="407" width="330" height="33" rx="14" fill="white"/>
  <rect x="210" y="452" width="381" height="33" rx="14" fill="white"/>
  
  <!-- Graduation button (proportionally increased) -->
  <circle cx="400" cy="315" r="14" fill="black"/>
  
  <!-- String connecting cap to tassel (proportionally increased) -->
  <rect x="393" y="329" width="14" height="81" fill="black"/>
  
  <!-- Tassel cap (proportionally increased) -->
  <rect x="353" y="410" width="94" height="33" rx="14" fill="black"/>
  
  <!-- Tassel strands bundle (proportionally increased) -->
  <rect x="359" y="443" width="81" height="61" rx="8" fill="black"/>
  
  <!-- Individual tassel strands (proportionally increased) -->
  <rect x="366" y="504" width="9" height="73" fill="black"/>
  <rect x="382" y="510" width="9" height="61" fill="black"/>
  <rect x="400" y="504" width="9" height="65" fill="black"/>
  <rect x="418" y="515" width="9" height="54" fill="black"/>
  <rect x="434" y="510" width="9" height="45" fill="black"/>
</svg>